<?xml version="1.0" encoding="utf-8"?>
<!-- Generator: Adobe Illustrator 21.0.2, SVG Export Plug-In . SVG Version: 6.00 Build 0)  -->
<svg version="1.1" id="Layer_3" xmlns="http://www.w3.org/2000/svg" xmlns:xlink="http://www.w3.org/1999/xlink" x="0px" y="0px"
	 viewBox="0 0 216 216" style="enable-background:new 0 0 216 216;" xml:space="preserve">
<style type="text/css">
	.st0{fill:#FFFFFF;}
</style>
<path class="st0" d="M201.6,2.8H14.7C8.1,2.8,2.8,8.1,2.8,14.7v186.9c0,6.6,5.3,11.9,11.9,11.9h186.9c6.6,0,11.9-5.3,11.9-11.9V14.7
	C213.5,8.1,208.2,2.8,201.6,2.8z M87.9,137c7.2,7.2,15.8,10.7,26,10.7c14,0,25.4-5.5,34.2-16.6l18.2,18.8
	c-14.4,16.3-31.5,24.4-51.1,24.4c-19.6,0-35.8-6.2-48.4-18.6c-12.7-12.4-19-28-19-46.9c0-18.9,6.5-34.6,19.4-47.3
	C80.1,49,95.9,42.7,114.6,42.7c20.9,0,38.4,8,52.4,23.8l-17.7,20c-9-11.2-20.1-16.8-33.5-16.8c-10.7,0-19.8,3.5-27.4,10.5
	c-7.6,7-11.4,16.4-11.4,28.2C77.1,120.4,80.7,129.9,87.9,137z"/>
</svg>